<svg width="18" height="18" viewBox="0 0 18 18" fill="none" xmlns="http://www.w3.org/2000/svg">
<path d="M8 10V13C8 13.2833 8.09583 13.5208 8.2875 13.7125C8.47917 13.9042 8.71667 14 9 14C9.28333 14 9.52083 13.9042 9.7125 13.7125C9.90417 13.5208 10 13.2833 10 13V10H13C13.2833 10 13.5208 9.90417 13.7125 9.7125C13.9042 9.52083 14 9.28333 14 9C14 8.71667 13.9042 8.47917 13.7125 8.2875C13.5208 8.09583 13.2833 8 13 8H10V5C10 4.71667 9.90417 4.47917 9.7125 4.2875C9.52083 4.09583 9.28333 4 9 4C8.71667 4 8.47917 4.09583 8.2875 4.2875C8.09583 4.47917 8 4.71667 8 5V8H5C4.71667 8 4.47917 8.09583 4.2875 8.2875C4.09583 8.47917 4 8.71667 4 9C4 9.28333 4.09583 9.52083 4.2875 9.7125C4.47917 9.90417 4.71667 10 5 10H8ZM2 18C1.45 18 0.979167 17.8042 0.5875 17.4125C0.195833 17.0208 0 16.55 0 16V2C0 1.45 0.195833 0.979167 0.5875 0.5875C0.979167 0.195833 1.45 0 2 0H16C16.55 0 17.0208 0.195833 17.4125 0.5875C17.8042 0.979167 18 1.45 18 2V16C18 16.55 17.8042 17.0208 17.4125 17.4125C17.0208 17.8042 16.55 18 16 18H2ZM2 16H16V2H2V16Z" fill="#0062E2"/>
</svg>
