<svg width="24" height="24" viewBox="0 0 24 24" fill="none" xmlns="http://www.w3.org/2000/svg">
<mask id="mask0_57266_374" style="mask-type:alpha" maskUnits="userSpaceOnUse" x="0" y="0" width="24" height="24">
<rect width="24" height="24" fill="#D9D9D9"/>
</mask>
<g mask="url(#mask0_57266_374)">
<path d="M7.975 18.25C7.80833 17.7667 7.65417 17.275 7.5125 16.775C7.37083 16.275 7.25833 15.775 7.175 15.275L6 16.075V19.05L7.975 18.25ZM11.65 4.87501C10.85 5.72501 10.2083 6.84585 9.725 8.23751C9.24167 9.62918 9 11.0917 9 12.625C9 13.625 9.09167 14.6042 9.275 15.5625C9.45833 16.5208 9.7 17.3333 10 18H14C14.3 17.3333 14.5417 16.5208 14.725 15.5625C14.9083 14.6042 15 13.625 15 12.625C15 11.0917 14.7583 9.62918 14.275 8.23751C13.7917 6.84585 13.15 5.72501 12.35 4.87501C12.3 4.82501 12.2458 4.78751 12.1875 4.76251C12.1292 4.73751 12.0667 4.72501 12 4.72501C11.9333 4.72501 11.8708 4.73751 11.8125 4.76251C11.7542 4.78751 11.7 4.82501 11.65 4.87501ZM12 13C11.45 13 10.9792 12.8042 10.5875 12.4125C10.1958 12.0208 10 11.55 10 11C10 10.45 10.1958 9.97918 10.5875 9.58751C10.9792 9.19585 11.45 9.00001 12 9.00001C12.55 9.00001 13.0208 9.19585 13.4125 9.58751C13.8042 9.97918 14 10.45 14 11C14 11.55 13.8042 12.0208 13.4125 12.4125C13.0208 12.8042 12.55 13 12 13ZM16.025 18.25L18 19.05V16.075L16.825 15.275C16.7417 15.775 16.6292 16.275 16.4875 16.775C16.3458 17.275 16.1917 17.7667 16.025 18.25ZM12.775 2.60001C14.175 3.80001 15.2292 5.27501 15.9375 7.02501C16.6458 8.77501 17 10.7667 17 13L19.1 14.4C19.3833 14.5833 19.6042 14.825 19.7625 15.125C19.9208 15.425 20 15.7417 20 16.075V20.525C20 20.875 19.8542 21.15 19.5625 21.35C19.2708 21.55 18.9583 21.5833 18.625 21.45L15.025 20H8.975L5.375 21.45C5.04167 21.5833 4.72917 21.55 4.4375 21.35C4.14583 21.15 4 20.875 4 20.525V16.075C4 15.7417 4.07917 15.425 4.2375 15.125C4.39583 14.825 4.61667 14.5833 4.9 14.4L7 13C7 10.7667 7.35417 8.77501 8.0625 7.02501C8.77083 5.27501 9.825 3.80001 11.225 2.60001C11.3417 2.51668 11.4667 2.45001 11.6 2.40001C11.7333 2.35001 11.8667 2.32501 12 2.32501C12.1333 2.32501 12.2667 2.35001 12.4 2.40001C12.5333 2.45001 12.6583 2.51668 12.775 2.60001Z" fill="#090F1F"/>
</g>
</svg>
