<svg width="20" height="19" viewBox="0 0 20 19" fill="none" xmlns="http://www.w3.org/2000/svg">
<path d="M4 16L1.7 18.3C1.38333 18.6167 1.02083 18.6875 0.6125 18.5125C0.204167 18.3375 0 18.025 0 17.575V2C0 1.45 0.195833 0.979167 0.5875 0.5875C0.979167 0.195833 1.45 0 2 0H18C18.55 0 19.0208 0.195833 19.4125 0.5875C19.8042 0.979167 20 1.45 20 2V14C20 14.55 19.8042 15.0208 19.4125 15.4125C19.0208 15.8042 18.55 16 18 16H4ZM3.15 14H18V2H2V15.125L3.15 14ZM5 12H11C11.2833 12 11.5208 11.9042 11.7125 11.7125C11.9042 11.5208 12 11.2833 12 11C12 10.7167 11.9042 10.4792 11.7125 10.2875C11.5208 10.0958 11.2833 10 11 10H5C4.71667 10 4.47917 10.0958 4.2875 10.2875C4.09583 10.4792 4 10.7167 4 11C4 11.2833 4.09583 11.5208 4.2875 11.7125C4.47917 11.9042 4.71667 12 5 12ZM5 9H15C15.2833 9 15.5208 8.90417 15.7125 8.7125C15.9042 8.52083 16 8.28333 16 8C16 7.71667 15.9042 7.47917 15.7125 7.2875C15.5208 7.09583 15.2833 7 15 7H5C4.71667 7 4.47917 7.09583 4.2875 7.2875C4.09583 7.47917 4 7.71667 4 8C4 8.28333 4.09583 8.52083 4.2875 8.7125C4.47917 8.90417 4.71667 9 5 9ZM5 6H15C15.2833 6 15.5208 5.90417 15.7125 5.7125C15.9042 5.52083 16 5.28333 16 5C16 4.71667 15.9042 4.47917 15.7125 4.2875C15.5208 4.09583 15.2833 4 15 4H5C4.71667 4 4.47917 4.09583 4.2875 4.2875C4.09583 4.47917 4 4.71667 4 5C4 5.28333 4.09583 5.52083 4.2875 5.7125C4.47917 5.90417 4.71667 6 5 6Z" fill="#090F1F" fill-opacity="0.5"/>
</svg>
