<svg width="24" height="24" viewBox="0 0 24 24" fill="none" xmlns="http://www.w3.org/2000/svg">
<path d="M19 15C19 14.4667 18.8417 13.9333 18.525 13.4C18.2083 12.8667 17.75 12.4833 17.15 12.25L9.35 9.14999L9 9.04999C8.88333 9.01666 8.75 8.99999 8.6 8.99999H7V7.52499C7 7.19166 7.075 6.88333 7.225 6.59999C7.375 6.31666 7.58333 6.08333 7.85 5.89999L12.85 2.32499C13.0333 2.19166 13.221 2.09566 13.413 2.03699C13.605 1.97833 13.8007 1.94933 14 1.94999C14.1993 1.95066 14.3993 1.97999 14.6 2.03799C14.8007 2.09599 14.984 2.19166 15.15 2.32499L20.15 5.89999C20.4167 6.08333 20.625 6.31666 20.775 6.59999C20.925 6.88333 21 7.19166 21 7.52499V15H19ZM15 7.99999C15.1333 7.99999 15.25 7.94999 15.35 7.84999C15.45 7.74999 15.5 7.63333 15.5 7.49999C15.5 7.36666 15.45 7.24999 15.35 7.14999C15.25 7.04999 15.1333 6.99999 15 6.99999C14.8667 6.99999 14.75 7.04999 14.65 7.14999C14.55 7.24999 14.5 7.36666 14.5 7.49999C14.5 7.63333 14.55 7.74999 14.65 7.84999C14.75 7.94999 14.8667 7.99999 15 7.99999ZM13 7.99999C13.1333 7.99999 13.25 7.94999 13.35 7.84999C13.45 7.74999 13.5 7.63333 13.5 7.49999C13.5 7.36666 13.45 7.24999 13.35 7.14999C13.25 7.04999 13.1333 6.99999 13 6.99999C12.8667 6.99999 12.75 7.04999 12.65 7.14999C12.55 7.24999 12.5 7.36666 12.5 7.49999C12.5 7.63333 12.55 7.74999 12.65 7.84999C12.75 7.94999 12.8667 7.99999 13 7.99999ZM15 9.99999C15.1333 9.99999 15.25 9.94999 15.35 9.84999C15.45 9.74999 15.5 9.63333 15.5 9.49999C15.5 9.36666 15.45 9.24999 15.35 9.14999C15.25 9.04999 15.1333 8.99999 15 8.99999C14.8667 8.99999 14.75 9.04999 14.65 9.14999C14.55 9.24999 14.5 9.36666 14.5 9.49999C14.5 9.63333 14.55 9.74999 14.65 9.84999C14.75 9.94999 14.8667 9.99999 15 9.99999ZM13 9.99999C13.1333 9.99999 13.25 9.94999 13.35 9.84999C13.45 9.74999 13.5 9.63333 13.5 9.49999C13.5 9.36666 13.45 9.24999 13.35 9.14999C13.25 9.04999 13.1333 8.99999 13 8.99999C12.8667 8.99999 12.75 9.04999 12.65 9.14999C12.55 9.24999 12.5 9.36666 12.5 9.49999C12.5 9.63333 12.55 9.74999 12.65 9.84999C12.75 9.94999 12.8667 9.99999 13 9.99999ZM13.375 21.825C13.5583 21.875 13.771 21.896 14.013 21.888C14.255 21.88 14.459 21.8423 14.625 21.775L22 19C22 18.4333 21.8 17.9583 21.4 17.575C21 17.1917 20.5333 17 20 17H13.15C13.1 17 13.0417 16.996 12.975 16.988C12.9083 16.98 12.8583 16.9673 12.825 16.95L11.35 16.425C11.2167 16.375 11.125 16.2917 11.075 16.175C11.025 16.0583 11.0167 15.9333 11.05 15.8C11.0833 15.6833 11.1667 15.5917 11.3 15.525C11.4333 15.4583 11.5667 15.45 11.7 15.5L12.825 15.925C12.8917 15.9583 12.946 15.9793 12.988 15.988C13.03 15.9967 13.0923 16.0007 13.175 16H15.8C16.1167 16 16.3957 15.8917 16.637 15.675C16.8783 15.4583 16.9993 15.175 17 14.825C17 14.5917 16.929 14.3667 16.787 14.15C16.645 13.9333 16.4577 13.7833 16.225 13.7L9.3 11.125C9.18333 11.0917 9.06667 11.0623 8.95 11.037C8.83333 11.0117 8.71667 10.9993 8.6 11H7V20.025L13.375 21.825ZM1 20C1 20.55 1.196 21.021 1.588 21.413C1.98 21.805 2.45067 22.0007 3 22C3.54933 21.9993 4.02033 21.8037 4.413 21.413C4.80567 21.0223 5.00133 20.5513 5 20V13C5 12.45 4.80433 11.9793 4.413 11.588C4.02167 11.1967 3.55067 11.0007 3 11C2.44933 10.9993 1.97867 11.1953 1.588 11.588C1.19733 11.9807 1.00133 12.4513 1 13V20Z" fill="#F95B1C"/>
</svg>
