<svg width="16" height="18" viewBox="0 0 16 18" fill="none" xmlns="http://www.w3.org/2000/svg">
<path d="M3.99718 18C3.71384 18 3.47634 17.9042 3.28468 17.7125C3.09301 17.5209 2.99718 17.2834 2.99718 17V11.8L2.42218 12.725C2.27218 12.9584 2.06384 13.1042 1.79718 13.1625C1.53051 13.2209 1.28051 13.175 1.04718 13.025C0.813842 12.875 0.663842 12.6667 0.597175 12.4C0.530509 12.1334 0.572175 11.8834 0.722175 11.65L7.14718 1.35002C7.24718 1.18336 7.37218 1.06669 7.52218 1.00002C7.67218 0.933358 7.83051 0.900024 7.99718 0.900024C8.16384 0.900024 8.32218 0.933358 8.47218 1.00002C8.62218 1.06669 8.74718 1.18336 8.84718 1.35002L15.2722 11.65C15.4222 11.8834 15.4638 12.1334 15.3972 12.4C15.3305 12.6667 15.1805 12.875 14.9472 13.025C14.7138 13.175 14.4638 13.2167 14.1972 13.15C13.9305 13.0834 13.7222 12.9334 13.5722 12.7L12.9972 11.8V17C12.9972 17.2834 12.9013 17.5209 12.7097 17.7125C12.518 17.9042 12.2805 18 11.9972 18H3.99718ZM4.99718 16H6.99718V14C6.99718 13.7167 7.09301 13.4792 7.28468 13.2875C7.47634 13.0959 7.71384 13 7.99718 13C8.28051 13 8.51801 13.0959 8.70968 13.2875C8.90134 13.4792 8.99718 13.7167 8.99718 14V16H10.9972V8.60002L7.99718 3.80002L4.99718 8.60002V16ZM7.99718 11C7.71384 11 7.47634 10.9042 7.28468 10.7125C7.09301 10.5209 6.99718 10.2834 6.99718 10C6.99718 9.71669 7.09301 9.47919 7.28468 9.28752C7.47634 9.09586 7.71384 9.00002 7.99718 9.00002C8.28051 9.00002 8.51801 9.09586 8.70968 9.28752C8.90134 9.47919 8.99718 9.71669 8.99718 10C8.99718 10.2834 8.90134 10.5209 8.70968 10.7125C8.51801 10.9042 8.28051 11 7.99718 11Z" fill="#090F1F"/>
</svg>
