<svg width="18" height="18" viewBox="0 0 18 18" fill="none" xmlns="http://www.w3.org/2000/svg">
<path d="M5 14H7C7.28333 14 7.52083 13.9042 7.7125 13.7125C7.90417 13.5208 8 13.2833 8 13V11C8 10.7167 7.90417 10.4792 7.7125 10.2875C7.52083 10.0958 7.28333 10 7 10H5C4.71667 10 4.47917 10.0958 4.2875 10.2875C4.09583 10.4792 4 10.7167 4 11V13C4 13.2833 4.09583 13.5208 4.2875 13.7125C4.47917 13.9042 4.71667 14 5 14ZM11 14H13C13.2833 14 13.5208 13.9042 13.7125 13.7125C13.9042 13.5208 14 13.2833 14 13V11C14 10.7167 13.9042 10.4792 13.7125 10.2875C13.5208 10.0958 13.2833 10 13 10H11C10.7167 10 10.4792 10.0958 10.2875 10.2875C10.0958 10.4792 10 10.7167 10 11V13C10 13.2833 10.0958 13.5208 10.2875 13.7125C10.4792 13.9042 10.7167 14 11 14ZM5 8H7C7.28333 8 7.52083 7.90417 7.7125 7.7125C7.90417 7.52083 8 7.28333 8 7V5C8 4.71667 7.90417 4.47917 7.7125 4.2875C7.52083 4.09583 7.28333 4 7 4H5C4.71667 4 4.47917 4.09583 4.2875 4.2875C4.09583 4.47917 4 4.71667 4 5V7C4 7.28333 4.09583 7.52083 4.2875 7.7125C4.47917 7.90417 4.71667 8 5 8ZM11 8H13C13.2833 8 13.5208 7.90417 13.7125 7.7125C13.9042 7.52083 14 7.28333 14 7V5C14 4.71667 13.9042 4.47917 13.7125 4.2875C13.5208 4.09583 13.2833 4 13 4H11C10.7167 4 10.4792 4.09583 10.2875 4.2875C10.0958 4.47917 10 4.71667 10 5V7C10 7.28333 10.0958 7.52083 10.2875 7.7125C10.4792 7.90417 10.7167 8 11 8ZM2 18C1.45 18 0.979167 17.8042 0.5875 17.4125C0.195833 17.0208 0 16.55 0 16V2C0 1.45 0.195833 0.979167 0.5875 0.5875C0.979167 0.195833 1.45 0 2 0H16C16.55 0 17.0208 0.195833 17.4125 0.5875C17.8042 0.979167 18 1.45 18 2V16C18 16.55 17.8042 17.0208 17.4125 17.4125C17.0208 17.8042 16.55 18 16 18H2ZM2 16H16V2H2V16Z" fill="#090F1F" fill-opacity="0.5"/>
</svg>
