<svg width="18" height="18" viewBox="0 0 18 18" fill="none" xmlns="http://www.w3.org/2000/svg">
<path d="M16.2912 9.00001L17.2112 7.41001C17.3217 7.21871 17.3518 6.99133 17.2948 6.77786C17.2377 6.5644 17.0983 6.38232 16.907 6.27167L15.3153 5.35167V3.51834C15.3153 3.29733 15.2275 3.08537 15.0713 2.92908C14.915 2.7728 14.703 2.68501 14.482 2.68501H12.6495L11.7303 1.09417C11.6199 0.902783 11.4379 0.763099 11.2245 0.705841C11.1188 0.677508 11.0085 0.670286 10.9 0.684584C10.7914 0.698883 10.6868 0.734423 10.592 0.789174L9.00033 1.70917L7.40866 0.788341C7.21727 0.677839 6.98981 0.647893 6.77633 0.705091C6.56285 0.762289 6.38084 0.901946 6.27033 1.09334L5.35033 2.68501H3.51783C3.29682 2.68501 3.08486 2.7728 2.92858 2.92908C2.7723 3.08537 2.6845 3.29733 2.6845 3.51834V5.35084L1.09283 6.27084C0.998021 6.32563 0.914939 6.39857 0.848334 6.48548C0.781729 6.5724 0.732907 6.67159 0.704659 6.77739C0.67641 6.88318 0.66929 6.99351 0.683704 7.10206C0.698118 7.21061 0.733784 7.31525 0.788664 7.41001L1.70866 9.00001L0.788664 10.59C0.678655 10.7815 0.648807 11.0087 0.705629 11.2221C0.762451 11.4355 0.901334 11.6178 1.092 11.7292L2.68366 12.6492V14.4817C2.68366 14.7027 2.77146 14.9146 2.92774 15.0709C3.08402 15.2272 3.29598 15.315 3.517 15.315H5.35033L6.27033 16.9067C6.34411 17.0328 6.44944 17.1375 6.57598 17.2106C6.70251 17.2836 6.84589 17.3225 6.992 17.3233C7.137 17.3233 7.28116 17.285 7.4095 17.2108L8.9995 16.2908L10.5912 17.2108C10.7825 17.3214 11.0098 17.3515 11.2233 17.2944C11.4368 17.2374 11.6188 17.0979 11.7295 16.9067L12.6487 15.315H14.4812C14.7022 15.315 14.9141 15.2272 15.0704 15.0709C15.2267 14.9146 15.3145 14.7027 15.3145 14.4817V12.6492L16.9062 11.7292C17.001 11.6744 17.0841 11.6014 17.1507 11.5145C17.2173 11.4276 17.2661 11.3284 17.2943 11.2226C17.3226 11.1168 17.3297 11.0065 17.3153 10.898C17.3009 10.7894 17.2652 10.6848 17.2103 10.59L16.2912 9.00001ZM6.91616 4.82501C7.2478 4.82512 7.5658 4.95696 7.80022 5.19154C8.03464 5.42612 8.16628 5.74421 8.16616 6.07584C8.16605 6.40747 8.03421 6.72548 7.79963 6.9599C7.56505 7.19432 7.24696 7.32595 6.91533 7.32584C6.5837 7.32573 6.2657 7.19388 6.03127 6.95931C5.79685 6.72473 5.66522 6.40664 5.66533 6.07501C5.66544 5.74338 5.79729 5.42537 6.03186 5.19095C6.26644 4.95653 6.58453 4.8249 6.91616 4.82501ZM7.16616 12.825L5.83283 11.8258L10.8328 5.15917L12.1662 6.15834L7.16616 12.825ZM11.0828 13.1583C10.9186 13.1583 10.756 13.1259 10.6044 13.063C10.4527 13.0001 10.3148 12.908 10.1988 12.7918C10.0827 12.6757 9.99064 12.5378 9.92785 12.3861C9.86507 12.2343 9.83278 12.0717 9.83283 11.9075C9.83289 11.7433 9.86528 11.5807 9.92817 11.429C9.99106 11.2773 10.0832 11.1395 10.1994 11.0234C10.3155 10.9074 10.4534 10.8153 10.6051 10.7525C10.7568 10.6897 10.9195 10.6575 11.0837 10.6575C11.4153 10.6576 11.7333 10.7895 11.9677 11.024C12.2021 11.2586 12.3338 11.5767 12.3337 11.9083C12.3336 12.24 12.2017 12.558 11.9671 12.7924C11.7326 13.0268 11.4145 13.1584 11.0828 13.1583Z" fill="#FF4144"/>
</svg>
