<svg width="12" height="12" viewBox="0 0 12 12" fill="none" xmlns="http://www.w3.org/2000/svg">
<mask id="mask0_57254_196" style="mask-type:alpha" maskUnits="userSpaceOnUse" x="0" y="0" width="12" height="12">
<rect width="12" height="12" fill="#D9D9D9"/>
</mask>
<g mask="url(#mask0_57254_196)">
<path d="M6 11C4.88333 11 3.9375 10.6125 3.1625 9.8375C2.3875 9.0625 2 8.11667 2 7C2 6.05834 2.27917 5.15417 2.8375 4.2875C3.39583 3.42084 4.1625 2.6625 5.1375 2.0125C5.32083 1.8875 5.51042 1.88125 5.70625 1.99375C5.90208 2.10625 6 2.275 6 2.5V3.15C6 3.43334 6.09792 3.67084 6.29375 3.8625C6.48958 4.05417 6.72917 4.15 7.0125 4.15C7.15417 4.15 7.28958 4.11875 7.41875 4.05625C7.54792 3.99375 7.6625 3.90417 7.7625 3.7875C7.82917 3.70417 7.91458 3.65209 8.01875 3.63125C8.12292 3.61042 8.22083 3.63334 8.3125 3.7C8.8375 4.075 9.25 4.55417 9.55 5.1375C9.85 5.72084 10 6.34167 10 7C10 8.11667 9.6125 9.0625 8.8375 9.8375C8.0625 10.6125 7.11667 11 6 11ZM3 7C3 7.43334 3.0875 7.84375 3.2625 8.23125C3.4375 8.61875 3.6875 8.95834 4.0125 9.25C4.00417 9.20834 4 9.17084 4 9.1375V9.025C4 8.75834 4.05 8.50834 4.15 8.275C4.25 8.04167 4.39583 7.82917 4.5875 7.6375L6 6.25L7.4125 7.6375C7.60417 7.82917 7.75 8.04167 7.85 8.275C7.95 8.50834 8 8.75834 8 9.025V9.1375C8 9.17084 7.99583 9.20834 7.9875 9.25C8.3125 8.95834 8.5625 8.61875 8.7375 8.23125C8.9125 7.84375 9 7.43334 9 7C9 6.58334 8.92292 6.18959 8.76875 5.81875C8.61458 5.44792 8.39167 5.11667 8.1 4.825C7.93333 4.93334 7.75833 5.01459 7.575 5.06875C7.39167 5.12292 7.20417 5.15 7.0125 5.15C6.49583 5.15 6.04792 4.97917 5.66875 4.6375C5.28958 4.29584 5.07083 3.875 5.0125 3.375C4.3625 3.925 3.86458 4.51042 3.51875 5.13125C3.17292 5.75209 3 6.375 3 7ZM6 7.65L5.2875 8.35C5.19583 8.44167 5.125 8.54584 5.075 8.6625C5.025 8.77917 5 8.9 5 9.025C5 9.29167 5.09792 9.52084 5.29375 9.7125C5.48958 9.90417 5.725 10 6 10C6.275 10 6.51042 9.90417 6.70625 9.7125C6.90208 9.52084 7 9.29167 7 9.025C7 8.89167 6.975 8.76875 6.925 8.65625C6.875 8.54375 6.80417 8.44167 6.7125 8.35L6 7.65Z" fill="#090F1F" fill-opacity="0.5"/>
</g>
</svg>
