<svg width="24" height="24" viewBox="0 0 24 24" fill="none" xmlns="http://www.w3.org/2000/svg">
<mask id="mask0_57266_369" style="mask-type:alpha" maskUnits="userSpaceOnUse" x="0" y="0" width="24" height="24">
<rect width="24" height="24" fill="#D9D9D9"/>
</mask>
<g mask="url(#mask0_57266_369)">
<path d="M15 20C12.7667 20 10.875 19.225 9.325 17.675C7.775 16.125 7 14.2333 7 12C7 9.78333 7.775 7.89583 9.325 6.3375C10.875 4.77917 12.7667 4 15 4C17.2167 4 19.1042 4.77917 20.6625 6.3375C22.2208 7.89583 23 9.78333 23 12C23 14.2333 22.2208 16.125 20.6625 17.675C19.1042 19.225 17.2167 20 15 20ZM15 18C16.6667 18 18.0833 17.4167 19.25 16.25C20.4167 15.0833 21 13.6667 21 12C21 10.3333 20.4167 8.91667 19.25 7.75C18.0833 6.58333 16.6667 6 15 6C13.3333 6 11.9167 6.58333 10.75 7.75C9.58333 8.91667 9 10.3333 9 12C9 13.6667 9.58333 15.0833 10.75 16.25C11.9167 17.4167 13.3333 18 15 18ZM16 11.6V9C16 8.71667 15.9042 8.47917 15.7125 8.2875C15.5208 8.09583 15.2833 8 15 8C14.7167 8 14.4792 8.09583 14.2875 8.2875C14.0958 8.47917 14 8.71667 14 9V12.025C14 12.1583 14.0292 12.2875 14.0875 12.4125C14.1458 12.5375 14.2167 12.6417 14.3 12.725L16.575 15C16.775 15.2 17.0125 15.3 17.2875 15.3C17.5625 15.3 17.8 15.2 18 15C18.2 14.8 18.3 14.5625 18.3 14.2875C18.3 14.0125 18.2 13.775 18 13.575L16 11.6ZM3 9C2.71667 9 2.47917 8.90417 2.2875 8.7125C2.09583 8.52083 2 8.28333 2 8C2 7.71667 2.09583 7.47917 2.2875 7.2875C2.47917 7.09583 2.71667 7 3 7H5C5.28333 7 5.52083 7.09583 5.7125 7.2875C5.90417 7.47917 6 7.71667 6 8C6 8.28333 5.90417 8.52083 5.7125 8.7125C5.52083 8.90417 5.28333 9 5 9H3ZM2 13C1.71667 13 1.47917 12.9042 1.2875 12.7125C1.09583 12.5208 1 12.2833 1 12C1 11.7167 1.09583 11.4792 1.2875 11.2875C1.47917 11.0958 1.71667 11 2 11H5C5.28333 11 5.52083 11.0958 5.7125 11.2875C5.90417 11.4792 6 11.7167 6 12C6 12.2833 5.90417 12.5208 5.7125 12.7125C5.52083 12.9042 5.28333 13 5 13H2ZM3 17C2.71667 17 2.47917 16.9042 2.2875 16.7125C2.09583 16.5208 2 16.2833 2 16C2 15.7167 2.09583 15.4792 2.2875 15.2875C2.47917 15.0958 2.71667 15 3 15H5C5.28333 15 5.52083 15.0958 5.7125 15.2875C5.90417 15.4792 6 15.7167 6 16C6 16.2833 5.90417 16.5208 5.7125 16.7125C5.52083 16.9042 5.28333 17 5 17H3Z" fill="#090F1F"/>
</g>
</svg>
